<svg width="314" height="130" viewBox="0 0 314 130" fill="none" xmlns="http://www.w3.org/2000/svg">
<rect x="0.694031" y="0.591797" width="313" height="129" rx="64.5" fill="#FFE1D0"/>
<path d="M49.9753 66.4512C49.9753 68.6491 49.2774 70.4355 47.8815 71.8105C46.4024 73.2897 44.3607 74.0293 41.7565 74.0293C40.2669 74.0293 38.8555 73.6439 37.5222 72.873C36.5013 72.2897 35.7253 71.6178 35.194 70.8574C35.0899 70.222 35.0378 69.6439 35.0378 69.123C35.0378 67.4251 35.5534 66.123 36.5847 65.2168C37.418 64.4876 38.444 64.123 39.6628 64.123C40.5899 64.123 41.4336 64.3678 42.194 64.8574C42.9649 65.3783 43.5326 66.097 43.8972 67.0137C44.2305 67.0137 44.3972 66.8418 44.3972 66.498C44.3972 66.321 44.319 66.0866 44.1628 65.7949C44.0169 65.5033 43.8034 65.2116 43.5222 64.9199C42.7826 64.1595 41.8919 63.6908 40.8503 63.5137V54.5137C41.3711 54.1283 42.0274 53.8053 42.819 53.5449C43.6107 53.2845 44.5117 53.1543 45.5222 53.1543C46.5326 53.1543 47.444 53.3314 48.2565 53.6855C49.4024 54.2064 49.9753 54.9876 49.9753 56.0293V66.4512ZM59.7565 66.7793C59.8815 66.7793 60.0169 66.7272 60.1628 66.623C60.0586 66.2793 60.0065 65.7428 60.0065 65.0137V57.2949C61.1107 56.6283 62.4388 56.2949 63.9909 56.2949C64.8659 56.2949 65.6315 56.4147 66.2878 56.6543C66.9544 56.8835 67.4649 57.1908 67.819 57.5762V65.7168C67.819 67.2689 68.194 68.2793 68.944 68.748C68.9544 68.8001 68.9597 68.8991 68.9597 69.0449V69.3262C68.9597 70.847 68.5586 71.998 67.7565 72.7793C67.0274 73.5085 66.0222 73.873 64.7409 73.873C63.9388 73.873 63.2097 73.6908 62.5534 73.3262C61.9076 72.9616 61.4232 72.4303 61.1003 71.7324C60.7461 71.7324 60.569 71.9043 60.569 72.248C60.569 72.4876 60.6888 72.7272 60.9284 72.9668C60.5951 73.2376 60.194 73.4564 59.7253 73.623C59.2565 73.7897 58.5638 73.873 57.6472 73.873C56.7409 73.873 55.8555 73.6855 54.9909 73.3105C53.918 72.8522 53.0951 72.1491 52.5222 71.2012C51.8242 70.0762 51.4753 68.6491 51.4753 66.9199V62.998C50.944 62.071 50.6784 61.0501 50.6784 59.9355C50.6784 59.3626 50.7513 58.7689 50.8972 58.1543C51.043 57.5397 51.2774 56.9928 51.6003 56.5137H55.0378C56.3294 56.5137 57.3399 56.821 58.069 57.4355C58.8086 58.0397 59.1784 58.9616 59.1784 60.2012V65.2637C59.1784 66.2741 59.3711 66.7793 59.7565 66.7793ZM77.6315 54.7324V65.7168C77.6315 67.2689 78.0065 68.2793 78.7565 68.748C78.7669 68.8001 78.7722 68.8991 78.7722 69.0449V69.3262C78.7722 70.8158 78.3919 71.946 77.6315 72.7168C76.8815 73.4876 75.8138 73.873 74.4284 73.873C73.043 73.873 71.944 73.4876 71.1315 72.7168C70.1628 71.8001 69.6784 70.4147 69.6784 68.5605V52.3262C70.7722 51.6595 72.0222 51.3262 73.4284 51.3262C74.8451 51.3262 75.8972 51.6283 76.5847 52.2324C77.2826 52.8262 77.6315 53.6595 77.6315 54.7324ZM87.5065 59.5293V65.7168C87.5065 67.2689 87.8815 68.2793 88.6315 68.748C88.6419 68.8001 88.6472 68.8991 88.6472 69.0449V69.3262C88.6472 70.8574 88.2305 72.0085 87.3972 72.7793C86.6263 73.5085 85.5951 73.873 84.3034 73.873C83.0222 73.873 81.9649 73.5085 81.1315 72.7793C80.0794 71.8522 79.5534 70.498 79.5534 68.7168V58.5605C79.7409 58.4251 79.944 58.3158 80.1628 58.2324C80.3815 58.1491 80.6107 58.0449 80.8503 57.9199C80.4024 57.6908 79.9961 57.2949 79.6315 56.7324C79.2669 56.1595 79.0847 55.4928 79.0847 54.7324C79.0847 53.4199 79.5169 52.347 80.3815 51.5137C81.2461 50.6803 82.3034 50.2637 83.5534 50.2637C84.8138 50.2637 85.8659 50.6908 86.7097 51.5449C87.5638 52.3887 87.9909 53.4512 87.9909 54.7324C87.9909 55.7637 87.668 56.6699 87.0222 57.4512C86.3763 58.222 85.5899 58.7064 84.6628 58.9043C84.6628 59.3001 84.8138 59.498 85.1159 59.498C85.6472 59.498 86.1888 59.2897 86.7409 58.873C87.1576 59.196 87.4128 59.4147 87.5065 59.5293ZM98.2409 74.0762C95.3555 74.0762 93.0794 73.2741 91.4128 71.6699C89.7044 70.0553 88.8503 67.847 88.8503 65.0449C88.8503 62.2324 89.7305 60.0033 91.4909 58.3574C93.1159 56.8262 95.1732 56.0605 97.6628 56.0605C100.152 56.0605 102.147 56.748 103.647 58.123C105.158 59.4876 105.913 61.1699 105.913 63.1699C105.913 64.9512 105.293 66.2949 104.053 67.2012C102.908 68.0553 101.345 68.4824 99.3659 68.4824C97.8867 68.4824 96.6367 68.1751 95.6159 67.5605C95.5326 67.623 95.4909 67.7376 95.4909 67.9043C95.4909 68.2168 95.9024 68.5033 96.7253 68.7637C97.5482 69.0449 98.4805 69.1855 99.5222 69.1855C100.574 69.1855 101.527 69.0553 102.382 68.7949C103.246 68.5241 103.939 68.2064 104.46 67.8418C104.71 68.0605 104.908 68.4668 105.053 69.0605C105.21 69.6439 105.288 70.1803 105.288 70.6699C105.288 71.1491 105.241 71.5762 105.147 71.9512C104.335 72.6387 103.501 73.1283 102.647 73.4199C101.439 73.8574 99.9701 74.0762 98.2409 74.0762ZM98.0378 63.498C98.5586 63.498 98.819 63.3001 98.819 62.9043C98.819 62.5293 98.543 62.3418 97.9909 62.3418C97.4388 62.3418 97.1211 62.6387 97.0378 63.2324C97.3294 63.4095 97.6628 63.498 98.0378 63.498ZM108.225 63.7168H109.194C109.715 63.7168 109.975 63.5449 109.975 63.2012C109.975 63.1595 109.965 63.097 109.944 63.0137H106.444C106.215 62.2845 106.1 61.472 106.1 60.5762C106.1 59.6699 106.168 58.9355 106.303 58.373C106.897 57.998 107.715 57.4251 108.757 56.6543C109.048 55.946 109.428 54.821 109.897 53.2793C109.96 53.071 110.033 52.8678 110.116 52.6699C110.928 52.4616 111.855 52.3574 112.897 52.3574C113.939 52.3574 114.965 52.4668 115.975 52.6855V56.5137H120.663C121.267 57.4303 121.569 58.5085 121.569 59.748C121.569 60.3105 121.491 60.8887 121.335 61.4824C121.178 62.0762 120.954 62.5814 120.663 62.998H116.444V65.3574C116.444 66.6908 117.001 67.3574 118.116 67.3574H118.788C119.007 68.1491 119.116 68.8366 119.116 69.4199C119.116 70.8574 118.663 71.9616 117.757 72.7324C116.861 73.4928 115.553 73.873 113.835 73.873C112.126 73.873 110.762 73.3991 109.741 72.4512C108.73 71.4928 108.225 70.0866 108.225 68.2324V63.7168ZM120.538 63.7168H121.507C122.027 63.7168 122.288 63.5449 122.288 63.2012C122.288 63.1595 122.277 63.097 122.257 63.0137H118.757C118.527 62.2845 118.413 61.472 118.413 60.5762C118.413 59.6699 118.48 58.9355 118.616 58.373C119.21 57.998 120.027 57.4251 121.069 56.6543C121.361 55.946 121.741 54.821 122.21 53.2793C122.272 53.071 122.345 52.8678 122.428 52.6699C123.241 52.4616 124.168 52.3574 125.21 52.3574C126.251 52.3574 127.277 52.4668 128.288 52.6855V56.5137H130.991C131.595 57.4303 131.897 58.5085 131.897 59.748C131.897 60.3105 131.819 60.8887 131.663 61.4824C131.507 62.0762 131.283 62.5814 130.991 62.998H128.757V65.3574C128.757 66.6908 129.314 67.3574 130.428 67.3574H131.1C131.319 68.1491 131.428 68.8366 131.428 69.4199C131.428 70.8574 130.975 71.9616 130.069 72.7324C129.173 73.4928 127.866 73.873 126.147 73.873C124.439 73.873 123.074 73.3991 122.053 72.4512C121.043 71.4928 120.538 70.0866 120.538 68.2324V63.7168ZM141.335 74.0762C138.449 74.0762 136.173 73.2741 134.507 71.6699C132.798 70.0553 131.944 67.847 131.944 65.0449C131.944 62.2324 132.824 60.0033 134.585 58.3574C136.21 56.8262 138.267 56.0605 140.757 56.0605C143.246 56.0605 145.241 56.748 146.741 58.123C148.251 59.4876 149.007 61.1699 149.007 63.1699C149.007 64.9512 148.387 66.2949 147.147 67.2012C146.001 68.0553 144.439 68.4824 142.46 68.4824C140.98 68.4824 139.73 68.1751 138.71 67.5605C138.626 67.623 138.585 67.7376 138.585 67.9043C138.585 68.2168 138.996 68.5033 139.819 68.7637C140.642 69.0449 141.574 69.1855 142.616 69.1855C143.668 69.1855 144.621 69.0553 145.475 68.7949C146.34 68.5241 147.033 68.2064 147.553 67.8418C147.803 68.0605 148.001 68.4668 148.147 69.0605C148.303 69.6439 148.382 70.1803 148.382 70.6699C148.382 71.1491 148.335 71.5762 148.241 71.9512C147.428 72.6387 146.595 73.1283 145.741 73.4199C144.533 73.8574 143.064 74.0762 141.335 74.0762ZM141.132 63.498C141.652 63.498 141.913 63.3001 141.913 62.9043C141.913 62.5293 141.637 62.3418 141.085 62.3418C140.533 62.3418 140.215 62.6387 140.132 63.2324C140.423 63.4095 140.757 63.498 141.132 63.498ZM174.507 73.873C173.079 73.873 171.96 73.6387 171.147 73.1699C170.272 72.6803 169.798 71.9876 169.725 71.0918L169.585 69.623C170.543 69.3939 171.35 68.8001 172.007 67.8418C172.184 67.571 172.272 67.3366 172.272 67.1387C172.272 66.8678 172.137 66.7324 171.866 66.7324H171.819C171.809 66.7428 171.788 66.748 171.757 66.748C171.027 68.2793 169.845 69.0449 168.21 69.0449C167.376 69.0449 166.663 68.8626 166.069 68.498C165.486 68.1335 164.949 67.5033 164.46 66.6074H164.366C164.085 66.6074 163.944 66.7272 163.944 66.9668C163.944 67.1335 164.007 67.321 164.132 67.5293C164.548 68.2272 165.069 68.7741 165.694 69.1699C166.184 69.5033 166.699 69.7012 167.241 69.7637L167.116 72.7168C166.491 73.123 165.829 73.4147 165.132 73.5918C164.444 73.7793 163.46 73.873 162.178 73.873C160.908 73.873 159.772 73.623 158.772 73.123C157.543 72.5085 156.928 71.6543 156.928 70.5605C156.928 69.196 157.199 65.8262 157.741 60.4512C158.033 57.6491 158.267 55.6908 158.444 54.5762C159.517 53.6178 161.1 53.1387 163.194 53.1387C164.715 53.1387 165.975 53.4199 166.975 53.9824L167.835 56.8574L167.288 59.1543C167.246 59.3105 167.225 59.4616 167.225 59.6074C167.225 59.972 167.434 60.1595 167.85 60.1699L169.335 53.998C169.762 53.7689 170.319 53.571 171.007 53.4043C171.694 53.2272 172.444 53.1387 173.257 53.1387C174.777 53.1387 175.902 53.3991 176.632 53.9199C177.371 54.4303 177.809 55.2949 177.944 56.5137C177.975 56.7428 178.022 57.123 178.085 57.6543C179.033 65.8001 179.507 70.597 179.507 72.0449C178.35 73.2637 176.684 73.873 174.507 73.873ZM188.35 64.8887V67.623C188.423 67.696 188.543 67.7324 188.71 67.7324C188.876 67.7324 188.996 67.6751 189.069 67.5605C189.142 67.446 189.178 67.248 189.178 66.9668V64.7324C189.178 63.7324 189.137 63.071 189.053 62.748C188.97 62.4147 188.814 62.248 188.585 62.248C188.439 62.248 188.314 62.3001 188.21 62.4043C188.303 63.4355 188.35 64.2637 188.35 64.8887ZM182.507 71.8105C180.798 70.1647 179.944 67.9355 179.944 65.123C179.944 62.3001 180.746 60.0762 182.35 58.4512C183.965 56.8158 186.079 55.998 188.694 55.998C191.309 55.998 193.423 56.847 195.038 58.5449C196.642 60.2428 197.444 62.4564 197.444 65.1855C197.444 67.9043 196.668 70.0658 195.116 71.6699C193.574 73.2741 191.475 74.0762 188.819 74.0762C186.163 74.0762 184.059 73.321 182.507 71.8105ZM206.788 66.7793C206.913 66.7793 207.048 66.7272 207.194 66.623C207.09 66.2793 207.038 65.7428 207.038 65.0137V57.2949C208.142 56.6283 209.47 56.2949 211.022 56.2949C211.897 56.2949 212.663 56.4147 213.319 56.6543C213.986 56.8835 214.496 57.1908 214.85 57.5762V65.7168C214.85 67.2689 215.225 68.2793 215.975 68.748C215.986 68.8001 215.991 68.8991 215.991 69.0449V69.3262C215.991 70.847 215.59 71.998 214.788 72.7793C214.059 73.5085 213.053 73.873 211.772 73.873C210.97 73.873 210.241 73.6908 209.585 73.3262C208.939 72.9616 208.454 72.4303 208.132 71.7324C207.777 71.7324 207.6 71.9043 207.6 72.248C207.6 72.4876 207.72 72.7272 207.96 72.9668C207.626 73.2376 207.225 73.4564 206.757 73.623C206.288 73.7897 205.595 73.873 204.678 73.873C203.772 73.873 202.887 73.6855 202.022 73.3105C200.949 72.8522 200.126 72.1491 199.553 71.2012C198.855 70.0762 198.507 68.6491 198.507 66.9199V62.998C197.975 62.071 197.71 61.0501 197.71 59.9355C197.71 59.3626 197.783 58.7689 197.928 58.1543C198.074 57.5397 198.309 56.9928 198.632 56.5137H202.069C203.361 56.5137 204.371 56.821 205.1 57.4355C205.84 58.0397 206.21 58.9616 206.21 60.2012V65.2637C206.21 66.2741 206.402 66.7793 206.788 66.7793ZM224.725 59.5293V65.7168C224.725 67.2689 225.1 68.2793 225.85 68.748C225.861 68.8001 225.866 68.8991 225.866 69.0449V69.3262C225.866 70.8574 225.449 72.0085 224.616 72.7793C223.845 73.5085 222.814 73.873 221.522 73.873C220.241 73.873 219.184 73.5085 218.35 72.7793C217.298 71.8522 216.772 70.498 216.772 68.7168V58.5605C216.96 58.4251 217.163 58.3158 217.382 58.2324C217.6 58.1491 217.829 58.0449 218.069 57.9199C217.621 57.6908 217.215 57.2949 216.85 56.7324C216.486 56.1595 216.303 55.4928 216.303 54.7324C216.303 53.4199 216.736 52.347 217.6 51.5137C218.465 50.6803 219.522 50.2637 220.772 50.2637C222.033 50.2637 223.085 50.6908 223.928 51.5449C224.783 52.3887 225.21 53.4512 225.21 54.7324C225.21 55.7637 224.887 56.6699 224.241 57.4512C223.595 58.222 222.809 58.7064 221.882 58.9043C221.882 59.3001 222.033 59.498 222.335 59.498C222.866 59.498 223.408 59.2897 223.96 58.873C224.376 59.196 224.632 59.4147 224.725 59.5293ZM234.538 54.7324V65.7168C234.538 67.2689 234.913 68.2793 235.663 68.748C235.673 68.8001 235.678 68.8991 235.678 69.0449V69.3262C235.678 70.8158 235.298 71.946 234.538 72.7168C233.788 73.4876 232.72 73.873 231.335 73.873C229.949 73.873 228.85 73.4876 228.038 72.7168C227.069 71.8001 226.585 70.4147 226.585 68.5605V52.3262C227.678 51.6595 228.928 51.3262 230.335 51.3262C231.751 51.3262 232.803 51.6283 233.491 52.2324C234.189 52.8262 234.538 53.6595 234.538 54.7324ZM244.35 54.7324V65.7168C244.35 67.2689 244.725 68.2793 245.475 68.748C245.486 68.8001 245.491 68.8991 245.491 69.0449V69.3262C245.491 70.8158 245.111 71.946 244.35 72.7168C243.6 73.4876 242.533 73.873 241.147 73.873C239.762 73.873 238.663 73.4876 237.85 72.7168C236.882 71.8001 236.397 70.4147 236.397 68.5605V52.3262C237.491 51.6595 238.741 51.3262 240.147 51.3262C241.564 51.3262 242.616 51.6283 243.303 52.2324C244.001 52.8262 244.35 53.6595 244.35 54.7324ZM261.991 65.8574C261.991 66.6074 262.074 67.2116 262.241 67.6699C262.408 68.1283 262.699 68.4876 263.116 68.748C263.126 68.8001 263.132 68.8991 263.132 69.0449V69.3262C263.132 70.8053 262.684 71.9564 261.788 72.7793C260.996 73.5085 260.017 73.873 258.85 73.873C258.059 73.873 257.335 73.6855 256.678 73.3105C256.022 72.9355 255.553 72.3939 255.272 71.6855C254.918 71.6855 254.741 71.8574 254.741 72.2012C254.741 72.4928 254.923 72.821 255.288 73.1855C254.611 73.6439 253.59 73.873 252.225 73.873C250.298 73.873 248.757 73.3522 247.6 72.3105C246.454 71.2585 245.882 69.7949 245.882 67.9199C245.882 66.0345 246.491 64.5762 247.71 63.5449C248.824 62.6178 250.267 62.1543 252.038 62.1543C252.642 62.1543 253.225 62.196 253.788 62.2793C254.163 62.3522 254.366 62.3939 254.397 62.4043C254.428 62.3001 254.444 62.2116 254.444 62.1387C254.444 61.8678 254.215 61.6855 253.757 61.5918C253.298 61.498 252.699 61.4512 251.96 61.4512C250.387 61.4512 249.043 61.7689 247.928 62.4043C247.418 61.5397 247.163 60.446 247.163 59.123C247.163 58.373 247.257 57.8158 247.444 57.4512C248.194 57.1074 249.147 56.8053 250.303 56.5449C251.46 56.2741 252.678 56.1387 253.96 56.1387C256.605 56.1387 258.605 56.7168 259.96 57.873C261.314 59.0293 261.991 60.6699 261.991 62.7949V65.8574ZM253.882 66.623C253.444 66.623 253.225 66.821 253.225 67.2168C253.225 67.5918 253.48 67.7793 253.991 67.7793C254.345 67.7793 254.605 67.696 254.772 67.5293C254.939 67.3522 255.022 67.0501 255.022 66.623C255.022 66.623 254.642 66.623 253.882 66.623ZM272.241 74.0762C269.533 74.0762 267.371 73.2428 265.757 71.5762C264.152 69.8991 263.35 67.6543 263.35 64.8418C263.35 62.0293 264.262 59.8053 266.085 58.1699C267.71 56.7116 269.741 55.9824 272.178 55.9824C274.345 55.9824 276.142 56.5189 277.569 57.5918C278.996 58.6543 279.71 60.1022 279.71 61.9355C279.71 63.2064 279.314 64.2428 278.522 65.0449C277.741 65.8366 276.71 66.2324 275.428 66.2324C274.387 66.2324 273.517 65.9564 272.819 65.4043C272.132 64.8418 271.725 64.1126 271.6 63.2168C271.142 63.2168 270.913 63.3835 270.913 63.7168C270.913 64.4772 271.288 65.1751 272.038 65.8105C272.902 66.5605 273.975 66.9355 275.257 66.9355C276.548 66.9355 277.616 66.6595 278.46 66.1074C278.98 66.9095 279.241 67.8835 279.241 69.0293C279.241 70.3626 278.668 71.5033 277.522 72.4512C276.21 73.5345 274.449 74.0762 272.241 74.0762Z" fill="#F99256"/>
</svg>
